<svg width="850" height="870" viewBox="0 0 850 870" fill="none" xmlns="http://www.w3.org/2000/svg">
<path d="M813 432C813 639.107 645.107 807 438 807C230.893 807 63 639.107 63 432C63 224.893 230.893 57 438 57C645.107 57 813 224.893 813 432Z" fill="white"/>
<path d="M425 0C537.717 1.34414e-06 645.817 44.7766 725.52 124.48C805.223 204.183 850 312.283 850 425C850 537.717 805.223 645.817 725.521 725.52C645.818 805.223 537.717 850 425 850L425 773.802C517.508 773.802 606.227 737.053 671.64 671.64C737.053 606.227 773.802 517.508 773.802 425C773.802 332.492 737.053 243.773 671.64 178.36C606.227 112.947 517.508 76.1984 425 76.1984V0Z" fill="#EB6D94"/>
<path d="M425 870C312.283 870 204.183 825.223 124.48 745.521C44.7768 665.818 0.000131234 557.717 2.88026e-10 445C-0.000131233 332.284 44.7763 224.183 124.479 144.48C204.182 64.7771 312.282 20.0003 424.999 20L424.999 96.1984C332.491 96.1986 243.772 132.947 178.36 198.36C112.947 263.773 76.1983 352.493 76.1984 445C76.1985 537.508 112.947 626.227 178.36 691.64C243.773 757.053 332.492 793.802 425 793.802L425 870Z" fill="#2AA3A4"/>
</svg>
