<svg width="750" height="762" viewBox="0 0 750 762" fill="none" xmlns="http://www.w3.org/2000/svg">
<path d="M713 375C713 554.493 567.493 700 388 700C208.507 700 63 554.493 63 375C63 195.507 208.507 50 388 50C567.493 50 713 195.507 713 375Z" fill="white"/>
<path d="M375 0C474.456 1.186e-06 569.839 39.5088 640.165 109.835C710.491 180.161 750 275.544 750 375C750 474.456 710.491 569.839 640.165 640.165C569.839 710.491 474.456 750 375 750L375 682.766C456.625 682.766 534.906 650.341 592.624 592.623C650.341 534.906 682.766 456.625 682.766 375C682.766 293.375 650.341 215.094 592.623 157.376C534.906 99.6591 456.625 67.2339 375 67.2339V0Z" fill="#EB6D94"/>
<path d="M375 762C275.544 762 180.161 722.491 109.835 652.165C39.509 581.839 0.000115794 486.457 2.54133e-10 387C-0.000115794 287.544 39.5085 192.162 109.834 121.835C180.16 51.5092 275.543 12.0002 374.999 12L374.999 79.2339C293.375 79.234 215.093 111.659 157.376 169.377C99.6589 227.094 67.2338 305.376 67.2339 387C67.2339 468.625 99.6593 546.906 157.377 604.624C215.094 662.341 293.375 694.766 375 694.766L375 762Z" fill="#2AA3A4"/>
</svg>
