<svg width="71" height="70" viewBox="0 0 71 70" fill="none" xmlns="http://www.w3.org/2000/svg">
<g clip-path="url(#clip0)">
<path fill-rule="evenodd" clip-rule="evenodd" d="M58.0142 16.3171C58.0142 18.637 56.1345 20.5171 53.8164 20.5171C51.4983 20.5171 49.6186 18.637 49.6186 16.3171C49.6186 13.9973 51.4983 12.1171 53.8164 12.1171C56.1351 12.1171 58.0142 13.9973 58.0142 16.3171ZM35.1433 46.6665C28.7033 46.6665 23.4829 41.4433 23.4829 35C23.4829 28.5567 28.7033 23.3335 35.1433 23.3335C41.5832 23.3335 46.8037 28.5567 46.8037 35C46.8037 41.4433 41.5832 46.6665 35.1433 46.6665ZM35.1433 17.027C25.2221 17.027 17.1796 25.0737 17.1796 35C17.1796 44.9263 25.2221 52.973 35.1433 52.973C45.0644 52.973 53.107 44.9263 53.107 35C53.107 25.0737 45.0644 17.027 35.1433 17.027ZM35.1433 6.30656C44.4839 6.30656 45.5902 6.34211 49.2786 6.51055C52.6894 6.66641 54.5418 7.23625 55.7743 7.71586C57.407 8.35078 58.5723 9.1093 59.7967 10.3343C61.021 11.5588 61.7792 12.7247 62.4137 14.3588C62.8926 15.592 63.4627 17.4453 63.6184 20.8578C63.7868 24.5487 63.8223 25.6555 63.8223 35.0011C63.8223 44.3466 63.7868 45.4535 63.6184 49.1438C63.4627 52.5563 62.8931 54.4097 62.4137 55.6429C61.7792 57.2764 61.021 58.4423 59.7967 59.6673C58.5729 60.8923 57.4075 61.6509 55.7743 62.2858C54.5418 62.7648 52.6894 63.3352 49.2786 63.4911C45.5902 63.6595 44.4839 63.6951 35.1433 63.6951C25.802 63.6951 24.6957 63.6595 21.0074 63.4911C17.5966 63.3352 15.7442 62.7654 14.5117 62.2858C12.879 61.6509 11.7137 60.8923 10.4893 59.6673C9.2655 58.4429 8.50684 57.277 7.87225 55.6429C7.39343 54.4097 6.82334 52.5563 6.66756 49.1438C6.49921 45.453 6.46368 44.3461 6.46368 35.0011C6.46368 25.6555 6.49921 24.5487 6.66756 20.8578C6.82334 17.4453 7.39289 15.592 7.87225 14.3588C8.50684 12.7252 9.26496 11.5593 10.4893 10.3343C11.7131 9.1093 12.8785 8.35078 14.5117 7.71586C15.7442 7.2368 17.5966 6.66641 21.0074 6.51055C24.6963 6.34211 25.8026 6.30656 35.1433 6.30656ZM35.1433 0C25.643 0 24.4514 0.0404688 20.7204 0.210547C16.997 0.380625 14.4537 0.972344 12.2291 1.8375C9.92852 2.73164 7.97774 3.92875 6.03297 5.87453C4.0882 7.82031 2.89172 9.77211 1.99804 12.0739C1.13334 14.3002 0.541926 16.8443 0.371936 20.5696C0.201947 24.3026 0.161499 25.4948 0.161499 35C0.161499 44.5052 0.201947 45.6974 0.371936 49.4304C0.541926 53.1557 1.13334 55.6998 1.99804 57.9261C2.89172 60.2279 4.0882 62.1797 6.03297 64.1255C7.97774 66.0713 9.92852 67.2678 12.2291 68.1625C14.4543 69.0277 16.997 69.6194 20.7204 69.7895C24.4514 69.9595 25.643 70 35.1433 70C44.6436 70 45.8351 69.9595 49.5661 69.7895C53.2895 69.6194 55.8323 69.0277 58.0574 68.1625C60.358 67.2678 62.3088 66.0713 64.2536 64.1255C66.1983 62.1797 67.3943 60.2279 68.2885 57.9261C69.1532 55.6998 69.7446 53.1557 69.9146 49.4304C70.0846 45.6974 70.125 44.5052 70.125 35C70.125 25.4948 70.0846 24.3026 69.9146 20.5696C69.7446 16.8443 69.1532 14.3002 68.2885 12.0739C67.3943 9.77211 66.1983 7.82031 64.2536 5.87453C62.3088 3.92875 60.358 2.73219 58.0574 1.8375C55.8323 0.972344 53.2895 0.380625 49.5661 0.210547C45.8351 0.0404688 44.6436 0 35.1433 0Z" fill="white"/>
</g>
<defs>
<clipPath id="clip0">
<rect width="69.9635" height="70" fill="white" transform="translate(0.161499)"/>
</clipPath>
</defs>
</svg>
