<svg width="71" height="70" viewBox="0 0 71 70" fill="none" xmlns="http://www.w3.org/2000/svg">
<g clip-path="url(#clip0)">
<path d="M70.189 34.0986C70.189 52.9309 54.8134 68.1971 35.8431 68.1971C29.8208 68.1971 24.1631 66.6571 19.2408 63.9543L0.225464 70L6.42501 51.7051C3.29764 46.5671 1.49647 40.5409 1.49647 34.0986C1.49647 15.2662 16.8737 0 35.8431 0C54.8149 0 70.189 15.2662 70.189 34.0986ZM35.8431 5.43044C19.9194 5.43044 6.96684 18.291 6.96684 34.0986C6.96684 40.3713 9.01055 46.1806 12.4675 50.9063L8.85974 61.5533L19.9567 58.0246C24.516 61.0198 29.9778 62.7667 35.8439 62.7667C51.7653 62.7667 64.7202 49.9077 64.7202 34.1001C64.7202 18.2926 51.766 5.43044 35.8431 5.43044ZM53.1871 41.9518C52.9749 41.6041 52.4144 41.3941 51.5733 40.9764C50.7306 40.5588 46.5903 38.5358 45.8207 38.2581C45.0488 37.9797 44.486 37.8397 43.9255 38.6758C43.365 39.5127 41.7512 41.3941 41.2591 41.9518C40.7678 42.511 40.2773 42.581 39.4346 42.1626C38.5935 41.7449 35.8812 40.8613 32.6652 38.0147C30.1629 35.7996 28.4729 33.0649 27.9816 32.2272C27.491 31.3911 27.9302 30.9392 28.3508 30.5231C28.7302 30.1482 29.1935 29.547 29.614 29.0593C30.0361 28.5709 30.1761 28.2232 30.4552 27.6648C30.7373 27.1071 30.5966 26.6194 30.3852 26.2002C30.1753 25.7826 28.49 21.6697 27.7888 19.9959C27.0876 18.3237 26.3872 18.6021 25.8951 18.6021C25.4046 18.6021 24.8425 18.5321 24.2813 18.5321C23.72 18.5321 22.8074 18.7413 22.0354 19.5774C21.2643 20.4143 19.09 22.4366 19.09 26.5487C19.09 30.6616 22.1054 34.6352 22.5275 35.1921C22.9481 35.749 28.35 44.4632 36.9089 47.81C45.4686 51.1552 45.4686 50.0391 47.0124 49.8991C48.5547 49.7599 51.9923 47.8777 52.6966 45.927C53.3962 43.9732 53.3962 42.3002 53.1871 41.9518Z" fill="black" fill-opacity="0.9"/>
</g>
<defs>
<clipPath id="clip0">
<rect width="69.9635" height="70" fill="white" transform="translate(0.225464)"/>
</clipPath>
</defs>
</svg>
