<svg width="2420" height="3833" viewBox="0 0 2420 3833" fill="none" xmlns="http://www.w3.org/2000/svg">
<path d="M2128 1838C2128 2058.91 1948.91 2238 1728 2238C1507.09 2238 1328 2058.91 1328 1838C1328 1617.09 1507.09 1438 1728 1438C1948.91 1438 2128 1617.09 2128 1838Z" fill="#EB6D94" fill-opacity="0.76"/>
<path d="M620 1274C620 1439.69 485.685 1574 320 1574C154.315 1574 20 1439.69 20 1274C20 1108.31 154.315 974 320 974C485.685 974 620 1108.31 620 1274Z" fill="#EB6D94" fill-opacity="0.76"/>
<path d="M752 200C752 310.457 662.457 400 552 400C441.543 400 352 310.457 352 200C352 89.5431 441.543 0 552 0C662.457 0 752 89.5431 752 200Z" fill="#EB6D94" fill-opacity="0.76"/>
<path d="M594 2840C594 2922.84 526.843 2990 444 2990C361.157 2990 294 2922.84 294 2840C294 2757.16 361.157 2690 444 2690C526.843 2690 594 2757.16 594 2840Z" fill="#EB6D94" fill-opacity="0.76"/>
<circle cx="2030" cy="2135" r="50" fill="#2AA3A4"/>
<circle cx="2170" cy="378" r="250" fill="#EB6D94"/>
<circle cx="250" cy="1640" r="250" fill="#2AA3A4"/>
<circle cx="251" cy="3417" r="250" fill="#EB6D94" fill-opacity="0.76"/>
<circle cx="250" cy="3100" r="250" fill="#2AA3A4"/>
<circle cx="2170" cy="3403" r="250" fill="#EB6D94" fill-opacity="0.76"/>
<path d="M2162 3683C2162 3765.84 2094.84 3833 2012 3833C1929.16 3833 1862 3765.84 1862 3683C1862 3600.16 1929.16 3533 2012 3533C2094.84 3533 2162 3600.16 2162 3683Z" fill="#2AA3A4"/>
<circle cx="324.5" cy="167.5" r="157.5" fill="#2AA3A4"/>
</svg>
