<svg width="2420" height="3705" viewBox="0 0 2420 3705" fill="none" xmlns="http://www.w3.org/2000/svg">
<path d="M2128 1710C2128 1930.91 1948.91 2110 1728 2110C1507.09 2110 1328 1930.91 1328 1710C1328 1489.09 1507.09 1310 1728 1310C1948.91 1310 2128 1489.09 2128 1710Z" fill="#EB6D94" fill-opacity="0.76"/>
<path d="M620 1146C620 1311.69 485.685 1446 320 1446C154.315 1446 20 1311.69 20 1146C20 980.315 154.315 846 320 846C485.685 846 620 980.315 620 1146Z" fill="#EB6D94" fill-opacity="0.76"/>
<path d="M594 2712C594 2794.84 526.843 2862 444 2862C361.157 2862 294 2794.84 294 2712C294 2629.16 361.157 2562 444 2562C526.843 2562 594 2629.16 594 2712Z" fill="#EB6D94" fill-opacity="0.76"/>
<circle cx="2030" cy="2007" r="50" fill="#2AA3A4"/>
<circle cx="2170" cy="250" r="250" fill="#2AA3A4" fill-opacity="0.76"/>
<circle cx="250" cy="1512" r="250" fill="#2AA3A4"/>
<circle cx="251" cy="3289" r="250" fill="#EB6D94" fill-opacity="0.76"/>
<circle cx="250" cy="2972" r="250" fill="#2AA3A4"/>
<circle cx="2170" cy="3275" r="250" fill="#EB6D94" fill-opacity="0.76"/>
<path d="M2162 3555C2162 3637.84 2094.84 3705 2012 3705C1929.16 3705 1862 3637.84 1862 3555C1862 3472.16 1929.16 3405 2012 3405C2094.84 3405 2162 3472.16 2162 3555Z" fill="#2AA3A4"/>
</svg>
