<svg width="64" height="69" viewBox="0 0 64 69" fill="none" xmlns="http://www.w3.org/2000/svg">
<path d="M33.5 0C41.5891 8.69735e-08 49.3469 2.89731 55.0668 8.05456C60.7866 13.2118 64 20.2065 64 27.5C64 34.7934 60.7866 41.7882 55.0668 46.9454C49.3469 52.1027 41.5891 55 33.5 55L33.5 27.5L33.5 0Z" fill="#EB6D94"/>
<path d="M30.5 69C22.4109 69 14.6531 66.1027 8.93325 60.9454C3.21339 55.7882 3.63216e-06 48.7935 0 41.5C-3.63216e-06 34.2066 3.21337 27.2118 8.93323 22.0546C14.6531 16.8973 22.4109 14 30.5 14L30.5 41.5L30.5 69Z" fill="#2AA3A4"/>
</svg>
